<svg width="512" height="512" viewBox="0 0 512 512" fill="none" xmlns="http://www.w3.org/2000/svg">
<g clip-path="url(#clip0)">
<path d="M501.94 374.42C433.492 363.156 402.644 293.044 401.396 290.068C401.3 289.876 401.236 289.684 401.108 289.492C397.62 282.388 396.788 276.532 398.708 272.084C402.452 263.316 416.788 258.772 426.26 255.764C429.012 254.9 431.604 254.068 433.748 253.236C443.092 249.556 449.748 245.556 454.164 241.044C459.412 235.636 460.436 230.452 460.372 227.092C460.212 218.9 453.94 211.604 443.924 208.052C440.564 206.676 436.692 205.94 432.788 205.94C430.132 205.94 426.164 206.292 422.42 208.052C414.42 211.796 407.252 213.844 401.076 214.132C397.812 213.972 395.508 213.268 394.004 212.596C394.196 209.396 394.388 206.1 394.612 202.708L394.708 201.236C396.916 166.58 399.636 123.476 388.18 97.876C380.34 80.34 369.812 65.268 356.852 53.044C346.004 42.804 333.396 34.484 319.38 28.34C295.028 17.588 272.308 15.988 260.916 15.988H260.884C260.436 15.988 260.02 15.988 259.636 15.988C256.468 16.02 251.316 16.084 250.836 16.084C239.476 16.084 216.724 17.684 192.308 28.436C178.324 34.58 165.78 42.868 154.964 53.108C142.068 65.332 131.572 80.372 123.764 97.844C112.308 123.412 115.028 166.516 117.204 201.14V201.204C117.428 204.916 117.684 208.788 117.908 212.564C116.244 213.3 113.524 214.132 109.524 214.132C103.06 214.132 95.3801 212.084 86.7081 208.02C84.1481 206.836 81.2361 206.228 78.0361 206.228C72.8841 206.228 67.412 207.732 62.708 210.516C56.756 214.004 52.9161 218.9 51.8601 224.372C51.1881 227.956 51.22 235.092 59.156 242.324C63.54 246.292 69.9401 249.972 78.2281 253.236C80.4041 254.1 82.9961 254.9 85.7161 255.764C95.1881 258.772 109.556 263.316 113.3 272.084C115.188 276.532 114.356 282.388 110.868 289.492C110.772 289.684 110.676 289.876 110.612 290.068C109.716 292.116 101.556 310.516 84.8201 329.94C75.3161 340.98 64.852 350.228 53.716 357.396C40.116 366.164 25.4281 371.86 10.0361 374.388C3.98805 375.38 -0.331949 380.756 0.0200507 386.868C0.116051 388.628 0.532051 390.388 1.26805 392.084V392.116C3.73205 397.844 9.39605 402.676 18.6121 406.932C29.8761 412.148 46.7081 416.532 68.6921 419.956C69.8121 422.068 70.9641 427.348 71.7641 430.964C72.5961 434.804 73.4601 438.772 74.7081 442.964C76.0521 447.508 79.508 452.948 88.4361 452.948C91.8281 452.948 95.7001 452.18 100.212 451.316C106.804 450.036 115.828 448.276 127.06 448.276C133.3 448.276 139.764 448.82 146.26 449.908C158.804 451.988 169.62 459.604 182.132 468.436C200.436 481.364 221.172 495.988 252.852 495.988C253.716 495.988 254.58 495.956 255.444 495.892C256.468 495.956 257.78 495.988 259.124 495.988C290.804 495.988 311.54 481.364 329.844 468.468L329.876 468.436C342.388 459.636 353.204 452.02 365.748 449.94C372.244 448.852 378.708 448.308 384.948 448.308C395.7 448.308 404.212 449.684 411.796 451.156C416.756 452.116 420.596 452.596 423.572 452.596H423.86H424.148C430.676 452.596 435.476 449.012 437.3 442.772C438.516 438.644 439.38 434.804 440.244 430.868C440.98 427.476 442.196 422.036 443.284 419.924C465.268 416.468 482.1 412.116 493.364 406.9C502.548 402.644 508.212 397.812 510.676 392.116C511.412 390.42 511.86 388.66 511.956 386.836C512.308 380.788 507.988 375.38 501.94 374.42Z" fill="white"/>
</g>
<defs>
<clipPath id="clip0">
<rect width="511.976" height="511.976" fill="white"/>
</clipPath>
</defs>
</svg>
