<svg width="128" height="128" viewBox="0 0 128 128" fill="none" xmlns="http://www.w3.org/2000/svg">
<g filter="url(#filter0_d)">
<circle cx="64" cy="60" r="60" fill="white"/>
</g>
<circle cx="64" cy="60" r="50" fill="#0091EA"/>
<g filter="url(#filter1_i)">
<path d="M29.2324 42.9492H25.6367L24.9531 45H22.7725L26.4775 35.0469H28.3779L32.1035 45H29.9229L29.2324 42.9492ZM26.1904 41.2881H28.6787L27.4277 37.5625L26.1904 41.2881ZM35.084 41.4932V45H33.0332V35.0469H36.916C37.6634 35.0469 38.3197 35.1836 38.8848 35.457C39.4544 35.7305 39.8919 36.1201 40.1973 36.626C40.5026 37.1273 40.6553 37.6992 40.6553 38.3418C40.6553 39.3171 40.3203 40.0872 39.6504 40.6523C38.985 41.2129 38.0622 41.4932 36.8818 41.4932H35.084ZM35.084 39.832H36.916C37.4583 39.832 37.8708 39.7044 38.1533 39.4492C38.4404 39.194 38.584 38.8294 38.584 38.3555C38.584 37.8678 38.4404 37.4736 38.1533 37.1729C37.8662 36.8721 37.4697 36.7171 36.9639 36.708H35.084V39.832ZM45.7549 41.3564H44.1211V45H42.0703V35.0469H45.7686C46.9443 35.0469 47.8512 35.3089 48.4893 35.833C49.1273 36.3571 49.4463 37.0977 49.4463 38.0547C49.4463 38.7337 49.2982 39.3011 49.002 39.7568C48.7103 40.208 48.266 40.568 47.6689 40.8369L49.8223 44.9043V45H47.6211L45.7549 41.3564ZM44.1211 39.6953H45.7754C46.2904 39.6953 46.6891 39.5654 46.9717 39.3057C47.2542 39.0413 47.3955 38.679 47.3955 38.2188C47.3955 37.7493 47.2611 37.3802 46.9922 37.1113C46.7279 36.8424 46.32 36.708 45.7686 36.708H44.1211V39.6953ZM59.1875 40.249C59.1875 41.2288 59.0143 42.0879 58.668 42.8262C58.3216 43.5645 57.8249 44.1341 57.1777 44.5352C56.5352 44.9362 55.7969 45.1367 54.9629 45.1367C54.138 45.1367 53.402 44.9385 52.7549 44.542C52.1077 44.1455 51.6064 43.5804 51.251 42.8467C50.8955 42.1084 50.7155 41.2607 50.7109 40.3037V39.8115C50.7109 38.8317 50.8864 37.9704 51.2373 37.2275C51.5928 36.4801 52.0918 35.9082 52.7344 35.5117C53.3815 35.1107 54.1198 34.9102 54.9492 34.9102C55.7786 34.9102 56.5146 35.1107 57.1572 35.5117C57.8044 35.9082 58.3034 36.4801 58.6543 37.2275C59.0098 37.9704 59.1875 38.8294 59.1875 39.8047V40.249ZM57.1094 39.7979C57.1094 38.7542 56.9225 37.9613 56.5488 37.4189C56.1751 36.8766 55.6419 36.6055 54.9492 36.6055C54.2611 36.6055 53.7301 36.8743 53.3564 37.4121C52.9827 37.9453 52.7936 38.7292 52.7891 39.7637V40.249C52.7891 41.2653 52.9759 42.0537 53.3496 42.6143C53.7233 43.1748 54.2611 43.4551 54.9629 43.4551C55.651 43.4551 56.1797 43.1862 56.5488 42.6484C56.918 42.1061 57.1048 41.3177 57.1094 40.2832V39.7979ZM64.2051 42.5322L66.4609 35.0469H68.7441L65.2783 45H63.1387L59.6865 35.0469H61.9629L64.2051 42.5322ZM75.6758 40.6865H71.7383V43.3525H76.3594V45H69.6875V35.0469H76.3457V36.708H71.7383V39.0801H75.6758V40.6865ZM85.376 41.6846C85.2985 42.7555 84.902 43.5986 84.1865 44.2139C83.4756 44.8291 82.5368 45.1367 81.3701 45.1367C80.0941 45.1367 79.0892 44.7083 78.3555 43.8516C77.6263 42.9902 77.2617 41.8099 77.2617 40.3105V39.7021C77.2617 38.7451 77.4303 37.902 77.7676 37.1729C78.1048 36.4437 78.5856 35.8854 79.21 35.498C79.8389 35.1061 80.568 34.9102 81.3975 34.9102C82.5459 34.9102 83.471 35.2178 84.1729 35.833C84.8747 36.4482 85.2803 37.3118 85.3896 38.4238H83.3389C83.2887 37.7812 83.1087 37.3164 82.7988 37.0293C82.4935 36.7376 82.0264 36.5918 81.3975 36.5918C80.7139 36.5918 80.2012 36.8379 79.8594 37.3301C79.5221 37.8177 79.349 38.5765 79.3398 39.6064V40.3584C79.3398 41.4339 79.5016 42.2201 79.8252 42.7168C80.1533 43.2135 80.6683 43.4619 81.3701 43.4619C82.0036 43.4619 82.4753 43.3184 82.7852 43.0312C83.0996 42.7396 83.2796 42.2907 83.3252 41.6846H85.376ZM94.8232 45H92.7725V40.7344H88.7734V45H86.7227V35.0469H88.7734V39.0801H92.7725V35.0469H94.8232V45ZM102.363 42.9492L98.7676 42.9492L98.084 45H95.9033L99.6084 35.0469H101.509L105.234 45H103.054L102.363 42.9492ZM99.3213 41.2881H101.81L100.559 37.5625L99.3213 41.2881Z" fill="white"/>
</g>
<rect x="49" y="16" width="10" height="12" fill="#F70000"/>
<rect x="59" y="16" width="10" height="12" fill="white"/>
<rect x="69" y="16" width="10" height="12" fill="#F60000"/>
<g clip-path="url(#clip0)">
<path d="M64.8067 81.2718L59.9611 99.4704C59.7962 100.088 59.0486 100.195 58.8166 99.6341C58.1921 98.1238 57.5676 96.6134 56.943 95.1031C56.7898 94.7327 56.3698 94.6226 56.0548 94.8702C54.7971 95.8593 53.5393 96.8485 52.2816 97.8376C51.8019 98.2149 51.2004 97.7472 51.3662 97.126L56.3785 78.6664L64.8067 81.2718Z" fill="#DC4955"/>
<path d="M70.9203 77.3732L77.8249 96.4825C78.0428 97.0834 77.4914 97.6015 76.9809 97.2756C75.6063 96.398 74.2316 95.5204 72.8569 94.6428C72.5198 94.4276 72.1128 94.5792 71.9964 94.9633C71.5313 96.4977 71.0663 98.0321 70.6012 99.5665C70.4239 100.152 69.6638 100.115 69.4447 99.5105L62.5668 80.4541L70.9203 77.3732Z" fill="#DC4955"/>
<path d="M64.8069 81.2714L63.9808 84.3728L63.9071 84.6526L60.7946 85.8311C60.4502 85.9614 60.0897 86.0271 59.7221 86.0271C58.8092 86.0271 57.9538 85.6221 57.3761 84.9142L55.3543 82.4399L56.3783 78.6669L62.6175 80.5948L64.8069 81.2714Z" fill="#DC4955"/>
<path d="M72.7184 82.351L70.6239 84.9141C70.0463 85.6221 69.1909 86.0271 68.2779 86.0271C67.9103 86.0271 67.5498 85.9614 67.2054 85.8311L64.0808 84.6475L63.9808 84.3728L62.6175 80.5948L62.567 80.4544L70.9198 77.3732L72.7184 82.351Z" fill="#DC4955"/>
<path d="M67.1906 85.8255C67.368 85.8928 67.5506 85.9472 67.7375 85.9798C68.8458 86.1737 69.9333 85.7604 70.6238 84.9141L72.7183 82.351L70.9197 77.3732L64.6716 79.678L64.6715 79.6778L62.5669 80.4544L62.6174 80.5948L58.2415 79.2426V79.2425L56.3782 78.6669L51.3661 97.1257C51.2005 97.7468 51.8014 98.2144 52.2811 97.8377C52.6679 97.5337 53.0536 97.2298 53.4404 96.9268L56.6603 85.0667C56.7479 84.7436 57.1642 84.6549 57.376 84.9142C57.9537 85.6221 58.809 86.0271 59.722 86.0271C60.0896 86.0271 60.4501 85.9614 60.7945 85.8312L63.907 84.6526L63.9807 84.3729L64.0801 84.6474L69.4443 99.5102C69.6634 100.115 70.4239 100.151 70.6016 99.5668C70.7915 98.9406 70.9813 98.3145 71.1712 97.6884L66.9688 86.0437C66.9193 85.9062 67.0538 85.7737 67.1906 85.8255V85.8255Z" fill="#D82F3C"/>
<path d="M80.6076 72.0708L77.657 74.4888C77.4669 74.6446 77.3401 74.8645 77.3004 75.1071L76.6849 78.8754C76.615 79.3035 76.2795 79.6391 75.8515 79.7092L72.0915 80.3253C71.8485 80.3651 71.6285 80.4923 71.4727 80.683L69.06 83.6365C68.7853 83.9727 68.3264 84.0958 67.9202 83.9419L64.3574 82.5929C64.1269 82.5057 63.8726 82.5057 63.6422 82.5929L60.0794 83.9419C59.6733 84.0958 59.2144 83.9726 58.9396 83.6363L56.5269 80.6829C56.3711 80.4922 56.1511 80.365 55.9081 80.3252L52.1481 79.7091C51.7201 79.639 51.3846 79.3033 51.3147 78.8753L50.6993 75.107C50.6597 74.8643 50.5328 74.6445 50.3427 74.4887L47.3921 72.0707C47.0571 71.7961 46.9345 71.3383 47.0875 70.933L48.436 67.3602C48.5227 67.1304 48.5227 66.8768 48.436 66.6469L47.0875 63.0742C46.9345 62.6689 47.0571 62.2112 47.3921 61.9365L50.3427 59.5185C50.5328 59.3627 50.6596 59.1428 50.6993 58.9002L51.3147 55.1319C51.3846 54.7038 51.7201 54.3682 52.1481 54.2981L55.9081 53.682C56.1511 53.6422 56.3711 53.515 56.5269 53.3243L58.9396 50.3708C59.2143 50.0345 59.6732 49.9115 60.0794 50.0653L63.6422 51.4144C63.8727 51.5016 64.127 51.5016 64.3574 51.4144L67.9204 50.0655C68.3265 49.9117 68.7854 50.0348 69.0602 50.371L71.4729 53.3245C71.6287 53.5152 71.8487 53.6424 72.0917 53.6822L75.8518 54.2983C76.2797 54.3684 76.6152 54.7041 76.6851 55.1321L77.3006 58.9004C77.3401 59.1431 77.467 59.3629 77.6571 59.5187L80.6077 61.9367C80.9427 62.2113 81.0653 62.6691 80.9123 63.0744L79.5638 66.6471C79.4771 66.877 79.4771 67.1306 79.5638 67.3604L80.9123 70.9332C81.0652 71.3384 80.9426 71.7962 80.6076 72.0708V72.0708Z" fill="#F3D332"/>
<path d="M64 78.9144C70.5536 78.9144 75.8663 73.5818 75.8663 67.0037C75.8663 60.4257 70.5536 55.0931 64 55.0931C57.4464 55.0931 52.1337 60.4257 52.1337 67.0037C52.1337 73.5818 57.4464 78.9144 64 78.9144Z" fill="#F8E837"/>
<path d="M72.6245 75.1828C70.4634 77.4803 67.3983 78.9144 64 78.9144C57.4468 78.9144 52.1337 73.5821 52.1337 67.0036C52.1337 62.8802 54.2222 59.2456 57.3953 57.1077C55.3856 59.2406 54.1535 62.1188 54.1535 65.2868C54.1535 71.8653 59.4666 77.1975 66.0198 77.1975C68.4648 77.1975 70.737 76.4552 72.6245 75.1828V75.1828Z" fill="#F3D332"/>
<path d="M64 79.6718C57.0393 79.6718 51.3763 73.989 51.3763 67.0039C51.3763 60.0187 57.0393 54.3359 64 54.3359C70.9607 54.3359 76.6237 60.0187 76.6237 67.0039C76.6237 73.989 70.9607 79.6718 64 79.6718ZM64 55.8507C57.8746 55.8507 52.8911 60.8539 52.8911 67.0038C52.8911 73.1536 57.8746 78.1569 64 78.1569C70.1254 78.1569 75.1089 73.1536 75.1089 67.0038C75.1089 60.8539 70.1254 55.8507 64 55.8507V55.8507Z" fill="#FAF063"/>
<path d="M65.9743 72.6837C65.9743 73.5203 65.2961 74.1985 64.4595 74.1985C63.6229 74.1985 62.9447 73.5203 62.9447 72.6837V62.9738H61.5207C60.6841 62.9738 60.0059 62.2956 60.0059 61.459C60.0059 60.6224 60.6841 59.9442 61.5207 59.9442H64.4595C65.2961 59.9442 65.9743 60.6224 65.9743 61.459V72.6837Z" fill="#F3D332"/>
</g>
<defs>
<filter id="filter0_d" x="0" y="0" width="128" height="128" filterUnits="userSpaceOnUse" color-interpolation-filters="sRGB">
<feFlood flood-opacity="0" result="BackgroundImageFix"/>
<feColorMatrix in="SourceAlpha" type="matrix" values="0 0 0 0 0 0 0 0 0 0 0 0 0 0 0 0 0 0 127 0"/>
<feOffset dy="4"/>
<feGaussianBlur stdDeviation="2"/>
<feColorMatrix type="matrix" values="0 0 0 0 0 0 0 0 0 0 0 0 0 0 0 0 0 0 0.25 0"/>
<feBlend mode="normal" in2="BackgroundImageFix" result="effect1_dropShadow"/>
<feBlend mode="normal" in="SourceGraphic" in2="effect1_dropShadow" result="shape"/>
</filter>
<filter id="filter1_i" x="22.7725" y="34.9102" width="82.4619" height="14.2266" filterUnits="userSpaceOnUse" color-interpolation-filters="sRGB">
<feFlood flood-opacity="0" result="BackgroundImageFix"/>
<feBlend mode="normal" in="SourceGraphic" in2="BackgroundImageFix" result="shape"/>
<feColorMatrix in="SourceAlpha" type="matrix" values="0 0 0 0 0 0 0 0 0 0 0 0 0 0 0 0 0 0 127 0" result="hardAlpha"/>
<feOffset dy="4"/>
<feGaussianBlur stdDeviation="2"/>
<feComposite in2="hardAlpha" operator="arithmetic" k2="-1" k3="1"/>
<feColorMatrix type="matrix" values="0 0 0 0 0.314392 0 0 0 0 0.36587 0 0 0 0 0.829167 0 0 0 0.25 0"/>
<feBlend mode="normal" in2="shape" result="effect1_innerShadow"/>
</filter>
<clipPath id="clip0">
<rect width="50" height="50" fill="white" transform="translate(39 50)"/>
</clipPath>
</defs>
</svg>
